<?xml version="1.0" standalone="no"?>
<!DOCTYPE svg PUBLIC "-//W3C//DTD SVG 20010904//EN"
 "http://www.w3.org/TR/2001/REC-SVG-20010904/DTD/svg10.dtd">
<svg version="1.0" xmlns="http://www.w3.org/2000/svg"
 width="1080.000000pt" height="839.000000pt" viewBox="0 0 1080.000000 839.000000"
 preserveAspectRatio="xMidYMid meet">
<metadata>
Created by potrace 1.16, written by Peter Selinger 2001-2019
</metadata>
<g transform="translate(0.000000,839.000000) scale(0.100000,-0.100000)"
fill="#000000" stroke="none">
<path d="M0 4195 l0 -4195 5400 0 5400 0 0 4195 0 4195 -5400 0 -5400 0 0
-4195z m5755 3481 c631 -83 1171 -314 1675 -715 190 -152 474 -449 580 -607 8
-12 35 -51 60 -86 165 -230 330 -561 421 -843 65 -199 114 -414 145 -640 22
-159 26 -626 6 -770 -21 -151 -54 -339 -62 -354 -10 -19 -72 66 -65 88 10 33
34 192 46 297 15 141 15 529 0 664 -76 655 -316 1230 -721 1727 -86 105 -285
307 -395 402 -347 298 -750 517 -1183 645 -711 209 -1457 171 -2142 -111 -389
-160 -793 -434 -1083 -736 -631 -656 -961 -1541 -908 -2434 11 -197 34 -375
65 -507 9 -38 15 -70 14 -72 -2 -1 -21 -4 -43 -6 l-40 -3 -17 85 c-52 254 -62
363 -62 675 0 262 3 319 22 450 52 341 122 592 247 881 157 364 387 704 680
1002 441 452 993 763 1605 906 162 38 282 56 535 80 84 8 515 -5 620 -18z
m-503 -256 c35 0 38 -3 47 -37 5 -21 12 -51 14 -68 3 -16 11 -61 18 -100 l12
-70 23 100 c13 55 28 117 34 137 l10 37 73 -6 c39 -3 74 -7 76 -9 2 -2 0 -100
-4 -218 l-7 -216 -47 0 -46 0 2 157 2 158 -29 -120 c-17 -66 -34 -136 -38
-155 -8 -33 -10 -35 -52 -35 l-44 0 -18 100 c-10 55 -24 127 -32 160 l-14 60
-1 -116 c0 -64 -4 -136 -7 -160 l-6 -44 -44 4 -44 3 0 172 c0 94 3 195 7 225
l6 53 36 -6 c20 -3 53 -6 73 -6z m623 -46 c65 -14 123 -28 127 -32 4 -4 3 -25
-3 -47 l-10 -41 -91 18 c-50 11 -92 17 -94 15 -2 -2 -7 -17 -10 -34 l-6 -30
87 -19 87 -19 -5 -38 c-3 -21 -8 -41 -11 -44 -3 -3 -27 -1 -53 5 -110 24 -120
24 -127 0 -15 -59 -11 -64 67 -77 128 -22 120 -18 114 -68 -2 -24 -7 -46 -10
-49 -5 -6 -121 14 -232 38 -27 6 -56 11 -64 11 -10 0 -12 12 -6 51 10 77 12
84 29 181 20 107 36 198 36 206 0 7 11 5 175 -27z m-954 -10 c66 -33 98 -100
106 -224 4 -66 2 -81 -19 -120 -28 -52 -80 -86 -146 -96 -128 -19 -219 84
-221 249 -1 107 53 188 137 202 20 4 42 8 47 10 16 4 68 -7 96 -21z m-3394
-86 c-15 -46 -31 -111 -36 -145 -10 -62 -9 -64 25 -115 64 -97 94 -256 71
-370 l-8 -37 60 63 c45 46 62 72 67 100 19 122 94 227 190 265 17 7 53 15 80
19 49 7 49 8 103 94 30 49 57 86 59 83 6 -6 -43 -100 -79 -150 -18 -26 -32
-62 -38 -102 -13 -85 -41 -144 -93 -195 -53 -53 -103 -78 -158 -78 -38 0 -47
-5 -91 -52 -27 -29 -49 -55 -49 -58 0 -3 36 -4 80 -2 95 4 140 -13 219 -84 27
-24 58 -44 68 -44 26 0 118 32 172 59 59 30 76 21 21 -12 -47 -26 -160 -66
-201 -70 -13 -1 -42 -14 -64 -29 -108 -72 -248 -55 -358 42 l-34 29 -46 -64
c-26 -36 -47 -67 -47 -69 0 -2 17 2 38 10 96 34 215 7 300 -70 22 -20 46 -36
54 -36 27 0 111 33 171 67 65 36 67 37 67 24 0 -16 -101 -68 -185 -96 -44 -14
-104 -42 -133 -63 -51 -35 -58 -37 -136 -37 -85 0 -128 15 -203 71 -17 13 -34
24 -37 24 -7 0 -79 -130 -74 -135 2 -2 26 3 53 11 86 27 193 1 278 -67 31 -25
43 -29 70 -23 40 8 121 48 164 80 35 26 43 29 43 14 0 -18 -112 -83 -185 -108
-38 -13 -81 -34 -95 -47 -48 -44 -105 -65 -175 -65 -70 0 -117 15 -178 57 -20
14 -39 24 -41 22 -8 -8 -74 -179 -69 -179 3 0 17 8 31 19 35 24 115 51 153 51
38 0 130 -32 167 -59 l28 -20 50 29 c27 15 74 51 106 79 62 56 77 64 53 27
-21 -32 -121 -109 -176 -137 -24 -12 -58 -40 -74 -62 -69 -94 -210 -125 -323
-72 -30 14 -55 25 -57 25 -4 0 -41 -125 -50 -169 l-7 -35 43 37 c24 21 61 42
83 48 61 17 165 6 214 -21 38 -21 44 -22 69 -9 16 8 61 47 101 87 40 39 75 72
77 72 28 0 -98 -129 -172 -177 -29 -18 -53 -38 -53 -43 0 -22 -78 -95 -125
-116 -62 -29 -145 -31 -214 -5 l-48 18 -11 -51 c-6 -28 -14 -71 -17 -96 l-7
-45 33 32 c81 76 191 98 292 59 l49 -18 36 29 c20 16 62 62 92 101 30 40 56
68 58 62 6 -17 -54 -94 -132 -168 -42 -40 -76 -76 -76 -81 0 -26 -83 -111
-131 -135 -57 -28 -152 -36 -205 -16 -15 6 -29 9 -31 6 -3 -2 -7 -51 -10 -108
l-6 -103 34 50 c62 91 173 138 274 115 26 -6 49 -9 50 -8 1 2 20 28 42 58 23
30 56 84 73 120 18 36 35 60 37 53 8 -22 -79 -174 -133 -233 -12 -14 -32 -50
-44 -80 -29 -74 -77 -130 -141 -165 -45 -24 -65 -29 -127 -29 l-75 0 7 -74 c3
-41 6 -93 6 -116 l1 -41 21 40 c56 107 135 164 236 169 33 2 64 6 71 10 17 11
64 109 92 191 16 47 25 63 27 48 4 -27 -49 -161 -92 -233 -18 -30 -37 -73 -41
-95 -25 -142 -145 -255 -269 -255 -41 0 -40 4 -25 -107 16 -121 19 -126 40
-65 37 109 105 173 211 201 l62 16 28 85 c16 47 32 105 35 130 7 52 22 89 23
53 0 -40 -30 -165 -55 -227 -14 -33 -30 -95 -36 -136 -19 -142 -105 -265 -203
-291 -23 -6 -46 -13 -53 -14 -8 -3 -6 -29 9 -97 26 -122 32 -131 47 -73 15 61
33 96 73 141 41 46 95 81 142 89 20 4 40 15 45 24 13 24 51 188 52 224 0 18 4
41 9 52 8 19 9 19 9 -2 2 -48 -22 -182 -44 -248 -12 -38 -25 -101 -28 -140
-10 -142 -84 -259 -190 -300 -54 -20 -54 -11 -1 -165 l32 -95 7 60 c16 139 68
232 157 280 l56 29 12 108 c7 59 10 130 6 158 -5 35 -3 50 5 50 9 0 10 -38 5
-152 -4 -84 -9 -207 -10 -273 -2 -80 -8 -137 -19 -170 -21 -63 -79 -142 -119
-163 -17 -10 -39 -25 -50 -34 -14 -14 -35 -18 -96 -18 -68 0 -87 4 -139 30
-68 34 -140 105 -173 171 -12 24 -50 73 -84 109 -71 75 -159 195 -154 210 2 6
26 -22 54 -62 28 -40 72 -96 98 -125 46 -51 47 -51 84 -41 79 22 179 -8 262
-80 29 -24 42 -30 37 -19 -4 11 -17 52 -30 92 l-22 73 -47 5 c-137 17 -245
110 -309 267 -14 36 -47 95 -72 131 -49 70 -117 204 -117 229 1 8 20 -23 44
-70 23 -47 58 -110 78 -141 36 -56 37 -56 94 -63 83 -9 153 -45 218 -111 55
-56 65 -56 47 1 -5 16 -12 45 -15 65 -6 33 -10 37 -44 42 -58 10 -142 56 -190
106 -47 49 -105 153 -117 211 -4 19 -17 49 -29 65 -56 75 -146 269 -132 283 3
3 9 -4 12 -14 17 -47 78 -174 107 -221 29 -49 34 -53 69 -53 79 0 187 -71 266
-175 l22 -30 -6 35 c-4 19 -10 59 -13 89 -4 33 -12 57 -21 62 -8 4 -37 18 -64
31 -104 49 -190 170 -225 314 -10 44 -30 102 -44 129 -22 44 -87 236 -87 257
0 4 5 8 10 8 6 0 10 -7 10 -16 0 -27 69 -225 91 -260 13 -22 30 -34 54 -38 43
-8 142 -75 177 -120 16 -19 39 -56 53 -82 l25 -47 0 96 0 95 -53 30 c-117 66
-196 200 -212 358 -4 38 -15 92 -26 121 -20 55 -59 236 -59 273 0 11 4 18 10
15 5 -3 10 -17 10 -30 0 -39 31 -183 50 -234 14 -37 28 -52 66 -74 78 -45 141
-114 182 -197 l37 -74 6 74 c5 67 3 77 -15 90 -56 41 -83 70 -118 124 -55 85
-78 168 -78 281 0 51 -6 128 -14 171 -20 108 -27 215 -16 239 11 24 9 31 15
-90 6 -137 20 -206 46 -225 94 -68 160 -157 186 -252 9 -32 20 -58 24 -58 3 0
11 26 15 58 l9 57 -46 47 c-51 51 -87 109 -114 184 -14 39 -18 88 -21 241 -1
106 -6 197 -9 203 -8 13 5 180 14 180 3 0 6 -69 6 -154 l0 -154 48 -42 c26
-23 61 -62 78 -86 37 -54 79 -164 79 -206 0 -44 14 -25 33 46 l16 59 -40 46
c-95 107 -144 268 -120 395 6 32 12 138 13 236 3 159 8 203 22 189 3 -2 0 -40
-6 -84 -5 -44 -8 -115 -5 -158 5 -76 6 -78 57 -133 28 -31 60 -75 72 -98 26
-51 58 -161 58 -200 0 -40 13 -25 44 53 l26 64 -26 30 c-92 110 -128 293 -85
438 10 35 24 111 31 169 13 116 39 230 53 230 5 0 6 -10 3 -22 -17 -58 -36
-159 -42 -220 -6 -64 -6 -68 25 -106 17 -22 46 -71 63 -109 28 -59 33 -82 38
-173 l5 -105 36 64 36 64 -34 56 c-74 123 -95 283 -52 399 12 31 27 100 34
152 19 143 53 265 69 249 4 -3 -3 -32 -14 -65 -12 -32 -26 -100 -32 -149 l-11
-90 36 -53 c56 -81 79 -153 86 -265 l6 -99 33 46 c37 54 38 59 14 94 -31 45
-59 124 -72 198 -14 85 -2 169 34 254 13 30 30 98 39 150 14 92 53 217 64 206
3 -3 -6 -43 -20 -88z m7676 -15 c28 -87 47 -170 47 -210 0 -14 12 -51 27 -82
21 -45 28 -75 31 -149 6 -118 -14 -195 -76 -294 l-23 -37 37 -50 c20 -28 37
-51 38 -51 2 0 3 38 3 84 1 104 28 191 85 277 38 57 40 63 34 112 -4 29 -16
88 -27 132 -32 126 -33 131 -22 120 15 -15 51 -142 57 -205 13 -113 15 -126
36 -180 54 -137 29 -306 -65 -450 -16 -24 -15 -27 17 -83 l33 -59 6 84 c8 119
41 208 108 292 30 37 31 43 25 100 -3 34 -15 101 -26 149 -22 99 -18 129 7 45
21 -74 35 -162 35 -226 0 -29 7 -66 14 -81 64 -123 31 -344 -70 -476 l-26 -35
28 -65 c32 -76 44 -89 44 -46 0 99 55 225 134 306 l48 50 -4 158 c-3 117 -2
154 6 140 6 -10 12 -87 14 -183 1 -91 5 -205 8 -255 10 -142 -31 -266 -118
-361 l-41 -44 20 -73 20 -72 12 60 c20 93 68 181 138 253 l63 63 2 77 c1 42 0
113 -1 157 -2 62 0 77 9 68 9 -8 11 -51 6 -165 -4 -84 -7 -164 -7 -178 -1 -14
2 -54 6 -90 13 -124 -39 -270 -132 -368 l-52 -55 13 -66 12 -66 22 71 c33 107
124 231 184 250 9 3 19 13 22 22 11 37 27 158 30 234 2 43 7 82 11 86 13 12
-4 -239 -19 -296 -9 -32 -12 -74 -9 -106 8 -76 -13 -180 -53 -263 -26 -54 -50
-86 -100 -131 l-66 -60 7 -73 7 -72 33 69 c40 87 108 163 179 200 34 18 59 39
65 54 16 39 48 179 56 238 4 28 11 52 15 52 18 0 -16 -180 -55 -288 -14 -38
-25 -90 -25 -115 0 -60 -35 -171 -71 -229 -36 -56 -106 -122 -153 -145 l-35
-16 -3 -99 c-2 -54 -2 -98 -1 -98 0 0 11 21 24 48 36 75 132 164 207 193 60
22 66 28 91 79 15 30 38 89 50 130 13 41 27 86 31 100 l8 25 1 -27 c1 -35 -50
-191 -87 -265 -16 -32 -33 -80 -36 -108 -4 -27 -24 -84 -43 -124 -52 -110
-138 -189 -244 -224 -17 -5 -19 -17 -35 -152 l-5 -50 18 32 c30 54 115 135
168 159 28 13 69 24 92 24 42 0 43 0 88 77 25 43 57 109 72 148 30 79 31 80
39 73 10 -10 -55 -163 -102 -238 -26 -41 -54 -98 -64 -125 -60 -174 -169 -285
-297 -303 l-47 -7 -12 -68 c-7 -37 -16 -77 -20 -89 -4 -13 16 2 49 38 70 76
136 112 217 121 59 6 63 8 95 51 17 24 53 87 79 139 26 52 50 92 53 89 9 -9
-74 -175 -122 -241 -24 -34 -54 -89 -68 -122 -62 -153 -170 -248 -297 -262
l-55 -6 -27 -75 c-15 -41 -27 -81 -27 -87 -1 -7 23 5 52 27 69 53 141 74 223
66 l62 -6 56 62 c31 35 74 89 96 122 22 32 40 52 40 44 0 -21 -97 -154 -152
-208 -25 -25 -62 -72 -81 -105 -45 -76 -71 -105 -125 -144 l-44 -30 -36 36
c-21 19 -61 49 -89 65 -29 17 -53 31 -53 31 0 1 15 47 34 102 19 55 32 103 30
107 -2 3 -17 9 -34 13 -103 23 -200 170 -200 304 0 34 -10 86 -26 131 -26 79
-56 248 -46 264 3 6 14 -38 24 -97 10 -58 26 -128 36 -154 15 -42 22 -48 55
-55 98 -20 182 -112 218 -238 l12 -45 23 90 c32 128 32 129 -19 142 -51 14
-115 59 -151 106 -34 45 -66 135 -66 187 0 22 -11 68 -25 102 -43 106 -84 278
-66 278 5 0 14 -28 20 -62 14 -72 45 -179 61 -208 6 -12 22 -20 38 -21 93 -2
188 -84 237 -204 l22 -56 13 83 c20 142 24 131 -46 144 -126 22 -215 116 -245
255 -6 29 -24 72 -40 97 -30 47 -82 167 -93 215 -11 45 12 31 25 -15 14 -55
83 -203 98 -212 6 -4 38 -9 70 -11 42 -2 75 -11 111 -31 57 -31 84 -62 124
-139 l25 -50 2 63 c1 34 2 88 3 120 l1 57 -80 5 c-93 6 -144 29 -195 86 -31
36 -80 127 -80 150 0 6 -9 19 -21 30 -47 43 -162 244 -139 244 4 0 18 -21 31
-47 27 -57 73 -128 106 -164 22 -24 28 -26 61 -17 101 28 207 -18 290 -127
l23 -30 -7 100 c-3 55 -8 102 -10 104 -2 2 -21 -1 -43 -7 -124 -38 -272 29
-319 143 -7 17 -37 51 -68 75 -59 47 -161 176 -149 188 4 4 15 -4 24 -18 33
-49 111 -138 139 -159 29 -20 31 -20 68 -4 25 11 65 17 114 17 84 -1 117 -14
181 -71 38 -34 40 -35 35 -12 -3 13 -10 57 -17 97 -9 62 -14 72 -28 66 -148
-63 -280 -33 -357 83 -16 24 -49 55 -73 69 -54 33 -171 148 -171 169 0 9 29
-14 68 -53 37 -38 82 -79 100 -91 l32 -23 44 21 c24 12 68 27 97 33 72 15 147
-7 208 -58 32 -28 42 -33 38 -18 -3 10 -15 56 -27 102 -12 45 -25 82 -28 82
-3 0 -26 -10 -51 -22 -35 -18 -64 -23 -121 -23 -92 0 -159 30 -205 91 -17 23
-54 53 -85 70 -54 29 -185 142 -175 152 2 3 26 -15 52 -39 27 -24 72 -59 101
-78 l53 -33 62 30 c112 55 201 55 286 -2 l48 -33 -22 56 c-12 31 -30 75 -39
97 l-17 42 -50 -34 c-28 -18 -67 -38 -87 -44 -89 -24 -193 -1 -252 55 -14 14
-58 36 -98 49 -65 22 -174 84 -188 107 -10 17 11 9 56 -21 67 -44 169 -86 184
-74 47 35 126 83 155 92 45 16 127 14 176 -3 21 -8 41 -12 43 -10 2 2 -15 35
-37 74 l-42 70 -46 -35 c-116 -89 -229 -95 -341 -20 -27 18 -71 39 -98 45 -80
20 -216 92 -202 106 3 3 39 -12 79 -33 41 -21 93 -45 116 -52 42 -13 43 -13
84 25 88 80 221 110 314 71 l37 -16 -17 28 c-10 15 -32 45 -48 67 -17 22 -32
42 -34 44 -1 2 -18 -10 -38 -28 -20 -17 -58 -42 -85 -56 -88 -44 -220 -31
-290 30 -8 7 -44 19 -80 25 -82 15 -215 78 -198 95 2 3 29 -8 59 -25 30 -16
82 -37 116 -46 l62 -17 49 44 c27 24 70 54 95 67 56 28 143 39 186 24 17 -6
31 -8 31 -4 0 4 -23 31 -51 60 -44 44 -58 52 -89 52 -48 0 -131 43 -171 88
-43 49 -81 135 -87 197 -4 36 -15 65 -42 105 -48 71 -70 115 -70 137 1 10 14
-7 30 -37 16 -30 42 -73 58 -95 26 -37 33 -41 86 -47 128 -16 232 -126 252
-268 5 -38 17 -56 71 -113 36 -37 62 -60 59 -51 -4 9 -9 49 -12 88 -10 110 18
215 88 328 21 34 22 40 10 107 -10 62 -32 137 -57 204 -4 9 -3 17 3 17 6 0 22
-35 35 -77z m-3004 31 c39 -15 40 -17 60 -103 11 -48 23 -111 27 -140 5 -39 9
-49 16 -38 9 18 41 113 58 178 12 43 13 44 87 14 l32 -13 -20 -59 c-10 -32
-41 -125 -67 -208 -54 -165 -50 -161 -122 -127 -34 17 -35 18 -60 145 -15 70
-25 129 -23 132 1 3 -1 2 -6 -2 -5 -5 -24 -54 -41 -111 -30 -98 -33 -103 -56
-98 -49 13 -74 26 -74 40 0 8 27 97 60 199 33 101 60 189 60 195 0 16 22 15
69 -4z m-1660 -198 c39 -104 71 -194 71 -201 0 -14 -68 -48 -80 -40 -5 3 -14
20 -19 38 -5 18 -27 79 -50 137 -33 86 -40 99 -40 70 0 -19 4 -53 9 -75 5 -22
11 -60 14 -84 3 -25 8 -64 12 -87 5 -38 4 -42 -19 -48 -14 -3 -32 -9 -41 -12
-11 -4 -37 28 -101 125 -47 72 -87 131 -90 131 -3 0 2 -15 9 -32 17 -39 82
-214 90 -243 4 -16 -2 -23 -34 -37 -38 -16 -41 -16 -49 1 -8 14 -151 390 -151
396 0 5 141 58 144 54 2 -2 33 -50 70 -106 36 -57 68 -103 70 -103 6 0 0 46
-20 163 -9 49 -13 92 -9 95 13 14 130 59 137 53 3 -3 38 -91 77 -195z m2226
-51 c39 -21 84 -46 102 -57 l31 -19 -16 -40 c-9 -23 -21 -43 -27 -46 -7 -2
-33 7 -59 21 l-47 25 -70 -142 c-39 -78 -73 -144 -75 -146 -9 -10 -94 40 -94
54 0 8 30 74 66 146 36 72 63 136 61 143 -3 6 -25 22 -51 34 -25 13 -46 25
-46 26 0 2 12 24 26 50 l26 46 51 -29 c29 -15 84 -45 122 -66z m-2965 -137
c19 -13 35 -28 37 -35 5 -15 -84 -76 -92 -63 -9 14 -58 13 -73 -2 -17 -17 -15
-47 3 -55 9 -3 37 3 63 13 26 10 70 18 99 18 44 1 56 -3 83 -29 36 -35 55 -90
46 -137 -14 -78 -138 -168 -209 -154 -31 6 -97 51 -97 65 0 4 18 22 39 39 39
31 40 32 70 15 23 -14 36 -15 58 -7 23 8 28 15 28 44 0 31 -3 35 -28 38 -15 2
-57 -4 -92 -13 -57 -14 -68 -14 -99 -1 -20 8 -45 30 -56 48 -49 80 -3 173 110
222 48 21 72 20 110 -6z m3299 -77 c51 -26 98 -82 111 -132 33 -122 -95 -309
-212 -309 -111 0 -225 130 -203 231 18 84 86 182 147 212 45 22 111 21 157 -2z
m-1283 -50 c497 -103 911 -325 1259 -675 381 -384 610 -844 692 -1391 25 -165
23 -529 -3 -700 -17 -104 -22 -121 -41 -130 -14 -6 -31 -33 -48 -78 -15 -37
-29 -66 -31 -64 -3 3 4 38 16 78 60 219 81 603 45 869 -81 615 -405 1185 -890
1563 -317 247 -649 396 -1055 474 -135 25 -163 28 -400 28 -203 0 -277 -4
-365 -19 -130 -21 -274 -56 -400 -96 -85 -27 -93 -28 -140 -15 l-50 13 30 11
c173 66 283 99 445 132 171 34 222 38 510 35 263 -3 281 -5 426 -35z m-2369
-108 l28 -36 -74 -67 -73 -67 22 -26 23 -26 69 61 69 62 24 -30 c13 -16 24
-31 25 -34 0 -3 -27 -32 -60 -65 -33 -33 -60 -64 -60 -70 0 -7 11 -22 25 -35
l26 -24 70 70 70 69 30 -33 c16 -18 29 -36 29 -41 0 -11 -219 -216 -230 -216
-12 0 -270 319 -267 331 2 9 215 214 223 214 2 0 16 -16 31 -37z m4015 -154
c69 -49 104 -122 87 -181 -18 -63 -24 -65 -66 -27 -35 30 -39 38 -35 69 4 39
-25 77 -53 67 -23 -9 -18 -35 20 -111 20 -39 35 -83 35 -104 0 -49 -33 -97
-85 -122 -37 -18 -49 -20 -83 -11 -72 20 -152 116 -152 183 0 35 27 108 39
108 3 -1 23 -16 45 -34 38 -33 38 -33 25 -69 -12 -34 -11 -38 11 -62 32 -34
68 -33 76 1 5 19 -2 44 -24 88 -17 34 -33 80 -35 104 -12 103 105 164 195 101z
m-4281 -206 c7 -7 3 -25 -12 -56 -21 -42 -24 -45 -54 -40 -40 6 -75 -26 -75
-69 0 -34 74 -119 121 -138 62 -26 116 38 84 101 -19 36 -16 42 47 75 27 14
28 13 48 -25 31 -61 27 -119 -12 -177 -41 -60 -74 -84 -124 -91 -65 -9 -118
12 -183 73 -76 70 -100 130 -82 208 13 57 49 109 95 137 23 15 44 19 84 16 29
-2 57 -8 63 -14z m718 -10 c11 -25 10 -29 -11 -46 -205 -161 -386 -357 -527
-572 -70 -107 -175 -306 -211 -401 -132 -347 -173 -564 -172 -914 0 -226 18
-387 62 -562 11 -42 20 -79 20 -83 0 -3 -15 -5 -32 -3 -30 3 -34 7 -46 53 -7
28 -25 118 -39 200 -24 136 -27 174 -27 400 0 266 9 356 60 571 109 465 366
905 715 1226 93 86 179 157 190 157 3 1 11 -11 18 -26z m3952 -308 c37 -20 86
-86 99 -137 13 -45 0 -104 -30 -140 l-19 -23 -35 35 c-34 33 -35 37 -24 66 16
44 4 80 -32 92 -40 14 -82 1 -136 -43 -38 -31 -44 -42 -44 -74 0 -52 27 -75
79 -68 l39 5 10 -52 c6 -31 7 -55 1 -60 -5 -6 -33 -10 -63 -10 -65 -1 -97 19
-139 86 -55 89 -45 178 29 251 63 61 117 87 181 87 30 0 67 -7 84 -15z m-4875
-308 c7 -4 30 25 59 73 l47 80 26 -16 c71 -42 72 -30 -13 -171 -42 -70 -79
-130 -81 -132 -4 -5 -354 231 -354 239 0 3 14 27 30 53 l30 48 123 -84 c67
-46 127 -86 133 -90z m-261 -137 c182 -76 210 -103 209 -203 0 -47 -7 -75 -27
-115 -57 -110 -125 -117 -321 -33 -65 28 -121 53 -124 55 -2 3 4 28 14 56 22
61 14 61 168 -4 60 -25 118 -46 129 -46 51 0 77 78 39 114 -11 9 -70 37 -133
63 -63 25 -118 49 -123 54 -11 10 24 109 39 109 5 0 64 -22 130 -50z m5343 36
c79 -41 127 -155 102 -245 -15 -56 -57 -102 -127 -136 -135 -66 -232 -33 -287
99 -47 112 10 227 139 279 50 20 137 22 173 3z m207 -455 c3 -5 9 -30 14 -55
l8 -46 -93 -97 c-51 -54 -92 -98 -91 -99 1 -1 45 9 97 22 52 13 100 24 107 24
12 0 33 -58 33 -91 0 -9 -10 -19 -22 -22 -13 -3 -103 -24 -201 -48 -198 -48
-190 -49 -202 28 l-6 43 92 90 c50 50 90 93 87 96 -3 3 -50 -6 -104 -20 -55
-14 -102 -22 -106 -18 -14 14 -27 96 -17 103 6 3 63 19 127 34 64 15 149 35
187 45 84 23 82 22 90 11z m-5622 -68 c55 -17 101 -53 122 -94 17 -31 20 -111
6 -155 -5 -16 -15 -55 -22 -87 -9 -44 -16 -56 -28 -53 -43 13 -354 86 -366 86
-8 0 -16 4 -20 10 -8 13 30 190 50 233 38 80 129 102 258 60z m-132 -546 c21
-41 33 -53 59 -60 19 -5 44 -7 57 -4 33 6 29 -6 -13 -39 -51 -41 -55 -53 -39
-109 8 -26 15 -52 15 -56 0 -5 -25 9 -56 31 l-57 40 -46 -33 c-25 -18 -51 -36
-57 -40 -7 -4 -5 15 6 51 l18 57 -45 46 -45 46 54 7 c53 7 55 8 84 61 16 30
31 55 34 54 3 0 17 -23 31 -52z m5704 -2 c28 -53 30 -54 83 -61 l54 -7 -42
-42 -42 -43 11 -52 c6 -29 10 -55 7 -57 -2 -2 -26 12 -54 31 l-49 36 -57 -40
c-31 -22 -56 -37 -56 -34 0 3 7 31 16 62 l17 56 -48 43 c-43 40 -45 43 -22 43
66 0 86 11 118 66 17 30 32 54 33 54 2 0 16 -25 31 -55z m-2456 -141 c35 -69
60 -128 58 -131 -3 -2 -28 2 -56 11 -29 8 -58 13 -65 10 -14 -5 -29 -38 -40
-84 -12 -52 -16 -52 -110 -19 -100 35 -101 35 -111 -43 l-7 -48 -45 61 c-25
33 -68 84 -94 114 -27 29 -49 58 -49 64 0 18 145 121 202 143 77 30 146 46
204 47 l51 1 62 -126z m72 -184 c85 -23 159 -141 167 -266 12 -188 -87 -337
-407 -608 -97 -82 -170 -171 -202 -244 -20 -45 -26 -152 -10 -152 5 0 16 34
26 75 26 117 88 192 300 360 208 164 304 294 344 466 l16 67 155 -125 c186
-149 232 -192 275 -258 36 -55 65 -144 65 -198 0 -35 -1 -35 -50 -41 -27 -3
-73 -9 -102 -12 -47 -6 -50 -5 -44 12 13 33 19 124 9 124 -6 0 -19 -32 -29
-72 l-19 -71 -105 -27 c-58 -15 -134 -37 -170 -49 -110 -37 -340 -157 -442
-231 l-97 -70 -168 0 -168 1 -33 45 c-65 88 -218 166 -355 180 -62 6 -66 8
-72 35 -4 16 -1 53 5 82 12 61 77 177 97 177 8 0 12 4 9 9 -8 12 110 120 178
164 28 19 105 68 171 110 166 105 229 158 265 219 26 47 30 63 30 133 0 110 3
113 82 85 34 -13 67 -26 71 -30 11 -10 -11 -95 -38 -150 -52 -103 -165 -210
-335 -316 -259 -162 -308 -195 -364 -246 -68 -62 -111 -119 -121 -160 -11 -44
10 -33 43 21 53 85 127 144 326 263 218 129 320 202 401 285 64 66 124 177
132 244 3 24 11 58 18 74 7 17 16 50 20 74 l7 43 42 -6 c22 -4 57 -11 77 -16z
m3453 -396 c5 -23 15 -33 41 -43 56 -20 131 -111 155 -188 11 -36 20 -78 20
-93 l0 -28 -72 19 c-39 11 -84 19 -99 19 -44 0 -54 29 -56 165 -1 66 -7 167
-13 224 -7 63 -9 127 -4 160 7 51 9 44 15 -74 3 -71 9 -144 13 -161z m-1208
26 c94 -12 232 -63 288 -107 27 -21 55 -55 68 -83 17 -34 35 -53 64 -69 54
-29 118 -97 133 -140 14 -42 14 -101 1 -135 -12 -34 -4 -34 101 3 153 54 284
74 469 74 142 0 173 -3 222 -21 91 -33 163 -86 205 -152 21 -31 53 -66 71 -76
76 -41 132 -122 177 -251 2 -7 46 30 97 82 104 104 142 122 231 111 124 -17
236 -98 237 -171 0 -14 18 -28 62 -50 117 -56 154 -157 95 -257 -28 -49 -246
-265 -377 -374 -150 -125 -299 -211 -457 -265 -225 -76 -497 -62 -615 31 l-36
29 -109 -53 c-134 -67 -206 -92 -331 -113 -171 -29 -391 7 -503 83 l-51 34
-56 -39 c-230 -156 -568 -230 -752 -166 -72 25 -142 79 -180 139 -19 30 -41
57 -49 61 -8 3 -45 -18 -85 -48 -225 -168 -468 -259 -731 -272 -222 -12 -389
23 -537 113 -61 36 -96 52 -104 46 -7 -5 -41 -29 -76 -53 -90 -63 -230 -135
-330 -170 -49 -17 -88 -29 -88 -27 0 2 -19 -2 -43 -9 -23 -7 -97 -13 -164 -14
-147 -2 -230 16 -311 69 l-57 37 -95 -47 c-122 -61 -217 -95 -320 -114 -231
-44 -490 19 -605 146 -26 29 -52 62 -57 74 -5 11 -22 28 -37 37 -49 29 -112
90 -138 134 -13 24 -29 43 -34 43 -5 0 -26 -7 -47 -16 -135 -59 -447 -156
-632 -198 -41 -10 -102 -24 -135 -31 -84 -20 -189 -35 -413 -59 l-194 -21 -38
-72 c-63 -116 -117 -252 -134 -337 -9 -43 -23 -90 -30 -105 -52 -99 -185 -136
-326 -91 -112 36 -210 108 -256 188 -10 17 -42 48 -71 67 -55 37 -104 95 -130
155 -16 37 -23 145 -12 195 l6 31 -91 18 c-52 10 -121 33 -165 54 -81 39 -167
116 -177 157 -4 15 -26 37 -58 56 -66 41 -97 73 -126 133 -49 103 -33 202 60
355 79 132 143 211 270 334 188 183 400 332 656 461 385 193 820 329 1224 381
430 57 448 58 675 57 380 -1 646 -82 810 -249 25 -25 53 -58 62 -73 8 -15 29
-35 45 -44 72 -43 168 -172 189 -257 10 -38 17 -48 28 -43 9 3 63 15 121 26
144 28 389 30 475 4 90 -27 176 -88 220 -156 21 -32 47 -62 59 -68 72 -33 162
-152 181 -240 3 -18 11 -29 17 -26 5 3 29 36 52 73 112 174 307 333 546 444
104 49 284 112 342 121 21 3 57 10 80 15 78 17 250 23 333 12 54 -7 103 -22
150 -45 72 -36 94 -54 224 -189 41 -42 77 -77 80 -77 3 0 12 10 20 22 7 12 84
112 170 222 268 345 351 467 420 617 l45 97 60 17 c34 10 66 19 71 20 20 6 81
4 151 -5z m162 -2068 c15 -10 -137 -98 -297 -171 -139 -63 -171 -72 -171 -44
0 13 12 23 38 32 20 8 55 21 77 30 50 20 260 127 289 146 23 17 45 19 64 7z
m-5268 -177 c58 -20 137 -44 175 -54 47 -12 71 -24 73 -35 3 -12 -4 -16 -25
-16 -32 0 -283 78 -359 111 -42 19 -46 23 -29 30 26 11 40 8 165 -36z m4655
14 c19 -11 38 -34 44 -51 6 -16 18 -130 26 -251 15 -214 15 -222 -3 -247 -41
-55 -90 -71 -265 -85 -177 -15 -529 -40 -787 -55 -173 -11 -354 -23 -605 -40
-82 -5 -217 -15 -300 -20 -173 -11 -394 -26 -615 -40 -85 -6 -220 -15 -300
-20 -80 -5 -212 -14 -295 -19 -82 -6 -222 -15 -310 -21 -88 -6 -221 -15 -295
-20 -74 -5 -208 -14 -298 -20 -197 -13 -262 -4 -318 44 l-36 31 -14 155 c-7
85 -17 187 -20 226 -4 40 -4 84 0 98 8 31 73 81 125 96 56 16 308 30 345 18
85 -26 162 -36 286 -36 157 0 233 14 372 66 88 33 109 37 191 37 60 0 114 -7
157 -19 49 -15 99 -20 200 -20 151 -1 242 15 370 67 41 16 98 31 125 32 28 1
138 9 245 16 207 14 226 15 499 4 186 -8 253 -1 417 40 63 16 150 27 275 35
101 6 222 15 269 19 47 4 174 5 284 3 174 -3 202 -6 231 -23z m1441 -92 c37
-19 54 -54 54 -113 0 -53 -30 -88 -89 -104 -53 -14 -214 -27 -488 -41 l-241
-12 -49 24 c-47 23 -48 26 -57 82 -8 51 -7 61 11 85 32 43 102 61 296 73 94 6
224 15 287 19 151 11 238 7 276 -13z m-1016 -74 c34 -20 44 -45 45 -111 0 -37
-5 -48 -30 -68 -41 -33 -95 -47 -185 -48 l-75 -1 -7 60 c-10 87 -12 175 -3
183 11 11 125 18 177 10 26 -4 62 -15 78 -25z m-4906 -370 c4 -43 9 -99 12
-125 l5 -48 -68 -2 c-151 -5 -210 8 -233 52 -6 11 -12 43 -13 70 -2 42 2 54
25 76 33 33 102 52 194 53 l72 1 6 -77z m-447 20 c24 -11 35 -25 43 -52 36
-129 -14 -167 -234 -182 -72 -5 -205 -14 -296 -20 -238 -16 -282 -15 -327 7
-45 22 -63 54 -63 110 0 94 61 119 335 135 105 6 240 15 300 19 130 9 198 4
242 -17z"/>
<path d="M4783 7265 c-27 -19 -36 -68 -23 -135 12 -66 42 -100 85 -100 61 0
85 66 60 163 -20 78 -71 108 -122 72z"/>
<path d="M6964 6695 c-63 -66 -73 -140 -22 -178 24 -18 30 -18 57 -7 17 7 47
35 67 62 46 62 52 120 15 149 -38 31 -69 24 -117 -26z"/>
<path d="M7898 5453 c-71 -39 -88 -111 -35 -148 29 -20 56 -19 108 4 58 26 92
63 92 101 0 71 -78 92 -165 43z"/>
<path d="M2471 4934 c-12 -15 -21 -37 -21 -49 0 -20 9 -25 74 -40 41 -10 91
-18 113 -19 37 -1 38 0 41 36 4 43 -22 73 -77 88 -65 18 -107 13 -130 -16z"/>
<path d="M7863 3763 c-24 -8 -43 -19 -43 -24 0 -6 -18 -47 -40 -93 -54 -114
-191 -316 -361 -531 -77 -99 -171 -221 -207 -270 l-67 -90 -136 137 c-151 151
-195 180 -305 199 -83 14 -298 6 -398 -16 -367 -79 -718 -297 -879 -545 -34
-53 -135 -166 -142 -158 -1 1 -6 32 -9 67 -4 36 -17 89 -30 118 -27 57 -98
133 -143 152 -16 7 -40 33 -58 64 -35 61 -92 106 -172 139 -53 21 -72 23 -238
23 -151 -1 -196 -5 -280 -24 -160 -37 -150 -36 -153 -8 -6 83 -76 205 -151
265 -54 44 -92 83 -143 145 -80 97 -229 169 -443 215 -110 23 -140 25 -365 26
-138 0 -287 -6 -340 -12 -526 -69 -728 -111 -1035 -216 -662 -226 -1208 -625
-1412 -1030 -58 -115 -67 -186 -33 -259 23 -49 83 -108 132 -129 17 -8 37 -30
49 -55 27 -57 69 -95 148 -137 80 -41 176 -68 252 -69 l56 0 -13 -51 c-21 -80
-18 -163 10 -221 25 -53 79 -110 134 -141 19 -11 45 -40 59 -67 73 -133 310
-220 433 -157 52 26 64 48 89 151 25 109 68 215 139 352 l56 107 61 0 c33 0
101 5 150 10 50 6 113 12 140 15 281 31 677 133 980 253 95 38 151 56 154 48
26 -80 83 -149 157 -192 23 -13 47 -37 54 -53 15 -37 84 -107 135 -136 96 -55
175 -70 360 -69 133 1 145 3 243 37 57 20 150 61 207 91 l103 54 27 -28 c68
-71 233 -108 402 -91 182 19 407 116 576 248 l58 45 87 -55 c98 -62 115 -70
222 -100 64 -18 102 -21 260 -21 160 -1 197 2 275 22 200 51 403 154 537 272
l47 40 35 -17 c25 -11 46 -34 65 -69 34 -58 86 -104 152 -131 62 -25 275 -25
372 0 131 35 228 78 358 160 l85 53 38 -32 c82 -71 241 -109 419 -101 151 7
242 33 414 122 l122 62 21 -22 c34 -36 115 -75 187 -90 281 -56 619 71 923
347 163 148 318 310 325 341 21 81 -41 160 -141 181 -27 6 -32 12 -37 45 -2
21 -13 50 -22 65 -40 61 -188 103 -268 77 -25 -9 -70 -49 -154 -138 l-118
-126 -7 74 c-11 124 -62 211 -155 265 -26 16 -54 44 -69 69 -30 52 -88 106
-142 134 -65 33 -162 44 -322 38 -202 -8 -349 -43 -540 -127 -52 -22 -102 -44
-110 -48 -9 -4 -6 5 8 24 59 77 81 113 92 151 24 79 -30 164 -135 215 -32 16
-45 28 -49 49 -7 39 -65 100 -125 132 -111 61 -318 86 -418 50z m261 -110
c107 -26 176 -72 176 -116 0 -27 -196 -291 -419 -565 -104 -127 -278 -368
-338 -467 -101 -164 -127 -256 -75 -263 47 -7 192 57 308 135 81 54 226 189
269 248 64 90 108 137 198 213 286 240 625 372 959 372 92 0 131 -4 176 -20
95 -33 162 -120 162 -211 0 -35 -14 -45 -74 -54 l-49 -7 55 -22 c127 -52 157
-88 120 -148 -156 -256 -176 -297 -157 -329 11 -17 80 -5 156 27 141 60 290
175 452 349 70 74 105 105 121 105 42 0 81 -11 106 -30 l25 -19 -70 -72 c-292
-297 -480 -433 -708 -511 -84 -29 -103 -32 -222 -32 -81 -1 -146 4 -173 12
-55 17 -132 91 -132 127 0 14 -4 25 -9 25 -5 0 -36 -17 -68 -39 -178 -118
-403 -201 -548 -201 -72 0 -192 24 -254 50 -46 20 -110 79 -136 124 -9 16 -13
15 -50 -14 -148 -119 -327 -208 -484 -240 -119 -24 -180 -25 -249 -5 -103 31
-149 99 -139 204 15 164 111 332 391 686 222 281 345 457 428 615 32 60 52 87
69 92 30 8 106 1 183 -19z m-4778 -218 c242 -40 365 -87 458 -175 77 -72 106
-139 106 -238 0 -46 -7 -99 -16 -128 -43 -126 -200 -298 -389 -423 -102 -67
-397 -221 -490 -255 -22 -8 -65 -24 -95 -36 -402 -156 -903 -260 -1255 -260
l-81 0 -56 -97 c-96 -167 -198 -420 -198 -490 0 -27 -35 -53 -70 -53 -45 0
-133 31 -176 62 -108 78 -110 174 -7 417 20 46 53 115 74 154 22 38 38 71 37
71 -39 14 -126 66 -149 90 -46 46 -72 102 -59 125 9 19 106 71 130 71 6 0 45
-35 86 -77 59 -63 76 -75 83 -63 5 8 52 75 105 148 183 254 433 550 635 753
160 159 157 154 75 123 -606 -226 -1328 -839 -1354 -1148 l-5 -61 -43 -3 c-83
-6 -241 56 -293 115 -52 60 -32 137 79 302 337 503 1195 937 2062 1042 337 40
411 47 556 48 101 1 195 -5 250 -14z m3425 -482 c47 -23 74 -45 97 -77 18 -25
46 -54 61 -66 65 -46 88 -158 56 -268 -33 -110 -172 -275 -312 -370 -127 -86
-295 -158 -443 -188 -125 -27 -329 -25 -437 3 -142 38 -224 91 -292 191 l-23
33 -66 -60 c-218 -192 -465 -301 -685 -301 -150 0 -240 39 -278 118 -12 26
-23 48 -25 50 -1 2 -35 -18 -75 -44 -114 -73 -264 -141 -374 -170 -87 -23
-113 -26 -196 -21 -250 15 -383 118 -366 283 15 144 202 360 452 524 229 149
524 240 779 240 218 0 318 -62 340 -212 8 -55 1 -62 -79 -73 l-49 -8 39 -12
c92 -27 155 -73 155 -113 0 -14 -37 -86 -81 -161 -58 -96 -83 -148 -87 -178
-4 -42 -4 -43 24 -43 66 0 175 47 297 128 95 62 279 241 316 306 88 157 312
325 571 429 176 70 313 96 490 94 119 -2 129 -4 191 -34z"/>
<path d="M9060 3064 c-231 -49 -546 -311 -629 -522 -56 -142 1 -209 157 -182
106 18 269 116 468 283 77 64 104 103 144 212 l26 70 67 3 c76 3 76 3 39 82
-32 68 -125 86 -272 54z"/>
<path d="M2680 3297 c-3 -2 -36 -7 -75 -10 -95 -8 -318 -55 -348 -74 -5 -3 32
-16 83 -29 137 -35 242 -102 225 -144 -3 -8 -40 -42 -82 -75 -87 -68 -398
-373 -495 -485 -129 -148 -337 -434 -325 -447 12 -11 322 29 447 58 669 157
1233 494 1350 807 71 189 -43 320 -330 378 -71 14 -439 32 -450 21z m584 -312
c49 -8 91 -17 94 -19 10 -10 -9 -56 -48 -114 -116 -174 -407 -370 -750 -505
-97 -38 -266 -97 -278 -97 -2 0 38 46 90 102 105 115 315 309 400 371 58 43
88 91 88 143 0 32 -22 85 -43 103 -10 7 -17 17 -17 22 0 15 366 10 464 -6z"/>
<path d="M2897 2895 c9 -102 -9 -138 -115 -221 -47 -38 -145 -126 -217 -197
l-130 -127 85 30 c204 74 472 225 612 347 70 60 168 175 168 197 0 17 -150 36
-293 36 l-116 0 6 -65z"/>
<path d="M6537 2860 c-72 -13 -171 -47 -265 -92 -69 -34 -103 -59 -182 -137
-109 -108 -162 -188 -187 -283 -17 -64 -17 -65 8 -114 34 -70 93 -98 203 -98
168 1 272 40 441 169 147 112 263 302 240 393 -5 22 -10 23 -43 17 -52 -9
-151 -64 -175 -96 -28 -38 -72 -56 -94 -38 -23 19 -43 72 -43 113 0 44 36 76
145 127 61 28 74 38 53 38 -14 1 -32 3 -40 5 -7 2 -34 0 -61 -4z m-19 -426 c2
-16 -14 -33 -72 -73 -76 -52 -186 -107 -186 -93 0 14 94 114 143 154 38 30 57
38 81 36 23 -2 32 -9 34 -24z"/>
<path d="M4515 2686 c-166 -37 -335 -142 -485 -303 -121 -129 -195 -282 -170
-348 12 -33 66 -65 109 -65 105 0 239 65 429 208 160 120 213 185 252 307 19
60 26 65 96 65 l63 0 -18 52 c-25 73 -54 92 -144 95 -40 1 -99 -4 -132 -11z"/>
</g>
</svg>
